<?xml version="1.0" encoding="UTF-8" standalone="no" ?>
<!DOCTYPE svg PUBLIC "-//W3C//DTD SVG 1.1//EN" "http://www.w3.org/Graphics/SVG/1.1/DTD/svg11.dtd">
<svg xmlns="http://www.w3.org/2000/svg" xmlns:xlink="http://www.w3.org/1999/xlink" version="1.1" width="1080" height="1080" viewBox="0 0 1080 1080" xml:space="preserve">
<desc>Created with Fabric.js 5.2.4</desc>
<defs>
</defs>
<g transform="matrix(1 0 0 1 540 540)" id="258d18eb-202b-4cce-a71d-9bcd35f28357"  >
<rect style="stroke: none; stroke-width: 1; stroke-dasharray: none; stroke-linecap: butt; stroke-dashoffset: 0; stroke-linejoin: miter; stroke-miterlimit: 4; fill: rgb(255,255,255); fill-rule: nonzero; opacity: 1; visibility: hidden;" vector-effect="non-scaling-stroke"  x="-540" y="-540" rx="0" ry="0" width="1080" height="1080" />
</g>
<g transform="matrix(1 0 0 1 540 540)" id="922acb08-d4a4-4eca-8660-422fc389bc39"  >
</g>
<g transform="matrix(2.77 0 0 2.77 540 540)"  >
<g style="" vector-effect="non-scaling-stroke"   >
		<g transform="matrix(1 0 0 1 -11.39 0)"  >
<path style="stroke: none; stroke-width: 1; stroke-dasharray: none; stroke-linecap: butt; stroke-dashoffset: 0; stroke-linejoin: miter; stroke-miterlimit: 4; fill: rgb(0,0,0); fill-rule: nonzero; opacity: 1;" vector-effect="non-scaling-stroke"  transform=" translate(-48.03, -89.06)" d="M 0 0 C 0.86658737 -0.00281982 1.73317474 -0.00563965 2.62602234 -0.00854492 C 3.58398209 -0.00652069 4.54194183 -0.00449646 5.52893066 -0.00241089 C 6.53208817 -0.00416321 7.53524567 -0.00591553 8.56880188 -0.00772095 C 11.90253401 -0.01214152 15.23621357 -0.00920075 18.56994629 -0.00582886 C 20.87540701 -0.00650184 23.18086765 -0.00747181 25.48632812 -0.00872803 C 30.32524285 -0.01020528 35.16413916 -0.00804957 40.00305176 -0.00338745 C 46.22114274 0.00230985 52.43919057 -0.00096901 58.65727997 -0.00695992 C 63.42002694 -0.01056479 68.18276359 -0.00942728 72.94551086 -0.00683212 C 75.23895777 -0.00616265 77.53240561 -0.00699198 79.82585144 -0.00931168 C 83.02508035 -0.011837 86.22423832 -0.0079993 89.42346191 -0.00241089 C 90.86040154 -0.00544724 90.86040154 -0.00544724 92.32637024 -0.00854492 C 93.19295761 -0.0057251 94.05954498 -0.00290527 94.95239258 0 C 95.70972939 0.00037703 96.46706619 0.00075405 97.2473526 0.0011425 C 98.97619629 0.12698364 98.97619629 0.12698364 99.97619629 1.12698364 C 100.0633346 2.83470722 100.08319636 4.54597013 100.07385254 6.25588989 C 100.07135498 7.18731812 100.06885742 8.11874634 100.06628418 9.07839966 C 100.05718018 10.27005737 100.04807617 11.46171509 100.03869629 12.68948364 C 100.01807129 16.46385864 99.99744629 20.23823364 99.97619629 24.12698364 C 108.55619629 24.12698364 117.13619629 24.12698364 125.97619629 24.12698364 C 125.97619629 33.03698364 125.97619629 41.94698364 125.97619629 51.12698364 C 117.06619629 51.12698364 108.15619629 51.12698364 98.97619629 51.12698364 C 98.97619629 59.04698364 98.97619629 66.96698364 98.97619629 75.12698364 C 100.84146973 75.11538208 102.70674316 75.10378052 104.62854004 75.09182739 C 107.05692446 75.08245139 109.48530996 75.07335099 111.91369629 75.06448364 C 113.76124512 75.05191528 113.76124512 75.05191528 115.64611816 75.03909302 C 116.81594238 75.03587036 117.9857666 75.03264771 119.19104004 75.02932739 C 120.81707153 75.02147217 120.81707153 75.02147217 122.47595215 75.01345825 C 124.97619629 75.12698364 124.97619629 75.12698364 125.97619629 76.12698364 C 126.07116337 78.5304665 126.1017849 80.90509346 126.08972168 83.30886841 C 126.08986771 84.06003937 126.09001373 84.81121033 126.09016418 85.58514404 C 126.08946492 88.07958823 126.08167193 90.57395867 126.07385254 93.06838989 C 126.07198841 94.79331929 126.07056448 96.51824921 126.06956482 98.24317932 C 126.06573926 102.79210868 126.05590866 107.34100631 126.04486084 111.8899231 C 126.03464753 116.5281837 126.03006737 121.16644942 126.02502441 125.80471802 C 126.01428642 134.9121561 125.99668933 144.01956228 125.97619629 153.12698364 C 117.39619629 153.12698364 108.81619629 153.12698364 99.97619629 153.12698364 C 99.97619629 161.37698364 99.97619629 169.62698364 99.97619629 178.12698364 C 65.65619629 178.12698364 31.33619629 178.12698364 -4.02380371 178.12698364 C -4.02380371 169.87698364 -4.02380371 161.62698364 -4.02380371 153.12698364 C -12.60380371 153.12698364 -21.18380371 153.12698364 -30.02380371 153.12698364 C -30.02380371 144.54698364 -30.02380371 135.96698364 -30.02380371 127.12698364 C -21.44380371 127.12698364 -12.86380371 127.12698364 -4.02380371 127.12698364 C -4.02380371 119.20698364 -4.02380371 111.28698364 -4.02380371 103.12698364 C -12.60380371 103.12698364 -21.18380371 103.12698364 -30.02380371 103.12698364 C -30.02380371 77.71698364 -30.02380371 52.30698364 -30.02380371 26.12698364 C -21.77380371 26.12698364 -13.52380371 26.12698364 -5.02380371 26.12698364 C -5.06339511 17.94445568 -5.06339511 17.94445568 -5.1138916 9.76199341 C -5.11638916 8.74935425 -5.11888672 7.73671509 -5.12145996 6.69338989 C -5.12669678 5.65126343 -5.13193359 4.60913696 -5.1373291 3.53543091 C -4.95011134 -0.43640395 -3.5631855 0.00177386 0 0 Z M -4.02380371 26.12698364 C -4.05958449 45.32118446 -4.05958449 45.32118446 -3.80505371 64.50588989 C -3.78539551 65.46362305 -3.7657373 66.4213562 -3.7454834 67.40811157 C -3.67441119 70.83529526 -3.59889279 74.26238561 -3.52380371 77.68948364 C -3.35880371 85.42385864 -3.19380371 93.15823364 -3.02380371 101.12698364 C 22.05619629 101.45698364 47.13619629 101.78698364 72.97619629 102.12698364 C 72.97619629 110.37698364 72.97619629 118.62698364 72.97619629 127.12698364 C 35.35619629 127.62198364 35.35619629 127.62198364 -3.02380371 128.12698364 C -3.02380371 136.04698364 -3.02380371 143.96698364 -3.02380371 152.12698364 C 30.63619629 152.12698364 64.29619629 152.12698364 98.97619629 152.12698364 C 98.97619629 127.04698364 98.97619629 101.96698364 98.97619629 76.12698364 C 73.56619629 76.12698364 48.15619629 76.12698364 21.97619629 76.12698364 C 21.97619629 67.54698364 21.97619629 58.96698364 21.97619629 50.12698364 C 47.38619629 50.12698364 72.79619629 50.12698364 98.97619629 50.12698364 C 98.97619629 42.20698364 98.97619629 34.28698364 98.97619629 26.12698364 C 64.98619629 26.12698364 30.99619629 26.12698364 -4.02380371 26.12698364 Z" stroke-linecap="round" />
</g>
		<g transform="matrix(1 0 0 1 -154 6.57)"  >
<path style="stroke: none; stroke-width: 1; stroke-dasharray: none; stroke-linecap: butt; stroke-dashoffset: 0; stroke-linejoin: miter; stroke-miterlimit: 4; fill: rgb(0,0,0); fill-rule: nonzero; opacity: 1;" vector-effect="non-scaling-stroke"  transform=" translate(35.55, -34.5)" d="M 0 0 C 0 8.58 0 17.16 0 26 C -12.21 28.97 -24.42 31.94 -37 35 C -25.57217207 37.59059255 -25.57217207 37.59059255 -14.14306641 40.17553711 C -12.71251845 40.50093429 -11.28201412 40.82652333 -9.8515625 41.15234375 C -9.10608154 41.31996216 -8.36060059 41.48758057 -7.5925293 41.66027832 C -2.2281436 42.8859282 -2.2281436 42.8859282 0 44 C 0 52.25 0 60.5 0 69 C -5.39869187 68.32516352 -9.54352476 67.7080631 -14.58374023 66.15820312 C -15.82119492 65.78111206 -17.0586496 65.404021 -18.33360291 65.01550293 C -19.65867335 64.60432206 -20.9836686 64.1928988 -22.30859375 63.78125 C -23.68466935 63.35860087 -25.06089781 62.93644914 -26.43727112 62.51477051 C -29.30540939 61.63455062 -32.17213987 60.74993543 -35.0378418 59.86181641 C -38.71681608 58.72180209 -42.39840824 57.59053714 -46.08097744 56.46219635 C -48.91523636 55.59319505 -51.74846392 54.7208734 -54.58134651 53.84739685 C -55.93954579 53.428802 -57.29797842 53.01096353 -58.65664482 52.59388733 C -60.54609253 52.01306418 -62.43409666 51.42755111 -64.32202148 50.84179688 C -65.39709457 50.50950073 -66.47216766 50.17720459 -67.57981873 49.83483887 C -70 49 -70 49 -71 48 C -71.08758003 46.00035018 -71.10696576 43.9976389 -71.09765625 41.99609375 C -71.09443359 40.78115234 -71.09121094 39.56621094 -71.08789062 38.31445312 C -71.07951172 37.03505859 -71.07113281 35.75566406 -71.0625 34.4375 C -71.05798828 33.15423828 -71.05347656 31.87097656 -71.04882812 30.54882812 C -71.03699545 27.36583978 -71.02051068 24.18294238 -71 21 C -63.63336377 18.70788377 -56.26519589 16.42075224 -48.89562988 14.13807678 C -44.87861199 12.89347963 -40.86239454 11.64636118 -36.84716797 10.39599609 C -32.4021838 9.011838 -27.95589924 7.63192658 -23.50881958 6.2545166 C -21.75304437 5.70987129 -19.99773298 5.16372849 -18.2428894 4.61608887 C -15.76468911 3.84299102 -13.28490122 3.07520352 -10.8046875 2.30859375 C -10.05904037 2.07464401 -9.31339325 1.84069427 -8.54515076 1.59965515 C -5.58625899 0.68998159 -3.11513995 0 0 0 Z" stroke-linecap="round" />
</g>
		<g transform="matrix(1 0 0 1 102.05 3.56)"  >
<path style="stroke: none; stroke-width: 1; stroke-dasharray: none; stroke-linecap: butt; stroke-dashoffset: 0; stroke-linejoin: miter; stroke-miterlimit: 4; fill: rgb(0,0,0); fill-rule: nonzero; opacity: 1;" vector-effect="non-scaling-stroke"  transform=" translate(8.63, -46.61)" d="M 0 0 C 0.91644287 0.00523682 1.83288574 0.01047363 2.77709961 0.01586914 C 4.26113281 0.02070313 4.26113281 0.02070313 5.77514648 0.02563477 C 6.81606445 0.03401367 7.85698242 0.04239258 8.92944336 0.05102539 C 10.49662109 0.05779297 10.49662109 0.05779297 12.09545898 0.06469727 C 14.68600996 0.07652627 17.27644895 0.0930085 19.86694336 0.11352539 C 18.49761426 7.04392598 16.44118666 13.42578346 13.93725586 20.02368164 C 13.55035583 21.05771622 13.16345581 22.09175079 12.76483154 23.15711975 C 11.51291234 26.49893029 10.25260921 29.83750578 8.99194336 33.17602539 C 8.12961139 35.47189301 7.26779735 37.76795523 6.40649414 40.06420898 C 4.69508853 44.62456956 2.98051932 49.18372082 1.26342773 53.74194336 C -0.84481652 59.34164016 -2.93821477 64.9467186 -5.02368164 70.55493164 C -5.84739939 72.76674578 -6.67136018 74.9784692 -7.49542236 77.19015503 C -8.00208449 78.55100612 -8.50807081 79.91210903 -9.0133667 81.27346802 C -9.69911125 83.1195553 -10.38861555 84.96424475 -11.07836914 86.80883789 C -11.64322021 88.32501709 -11.64322021 88.32501709 -12.21948242 89.87182617 C -13.13305664 92.11352539 -13.13305664 92.11352539 -14.13305664 93.11352539 C -15.84078022 93.20066371 -17.55204313 93.22052546 -19.26196289 93.21118164 C -20.81367188 93.20634766 -20.81367188 93.20634766 -22.39672852 93.20141602 C -23.4853418 93.19303711 -24.57395508 93.1846582 -25.69555664 93.17602539 C -27.33427734 93.16925781 -27.33427734 93.16925781 -29.00610352 93.16235352 C -31.71514159 93.15052366 -34.42407263 93.13404082 -37.13305664 93.11352539 C -32.07864711 78.43812727 -26.73478792 63.8860415 -21.25805664 49.36352539 C -20.49873032 47.34537588 -19.73961531 45.32714685 -18.98071289 43.30883789 C -17.84727827 40.29455842 -16.71330041 37.28049131 -15.57720947 34.26721191 C -13.57084947 28.94486141 -11.57481473 23.61890395 -9.59301758 18.28735352 C -9.17978241 17.17793396 -8.76654724 16.0685144 -8.34078979 14.92547607 C -7.54388572 12.78491303 -6.74915022 10.64354113 -5.95681763 8.50128174 C -5.60102631 7.54671082 -5.24523499 6.59213989 -4.87866211 5.60864258 C -4.40805862 4.33981232 -4.40805862 4.33981232 -3.927948 3.04534912 C -2.73476159 0.14554929 -2.73476159 0.14554929 0 0 Z" stroke-linecap="round" />
</g>
		<g transform="matrix(1 0 0 1 162.05 4.07)"  >
<path style="stroke: none; stroke-width: 1; stroke-dasharray: none; stroke-linecap: butt; stroke-dashoffset: 0; stroke-linejoin: miter; stroke-miterlimit: 4; fill: rgb(0,0,0); fill-rule: nonzero; opacity: 1;" vector-effect="non-scaling-stroke"  transform=" translate(-27.5, -27)" d="M 0 0 C 10.125 2.25 10.125 2.25 14.24438477 3.51220703 C 15.16465958 3.7923465 16.08493439 4.07248596 17.03309631 4.3611145 C 17.99283859 4.65702484 18.95258087 4.95293518 19.94140625 5.2578125 C 20.94968979 5.56572723 21.95797333 5.87364197 22.99681091 6.19088745 C 26.18636325 7.16572601 29.37444326 8.14528277 32.5625 9.125 C 34.73753429 9.79067808 36.91266359 10.45604577 39.08789062 11.12109375 C 44.39321875 12.74323373 49.69652588 14.37175905 55 16 C 55 23.26 55 30.52 55 38 C 49.2017878 39.79688185 43.403491 41.59348605 37.60498047 43.3894043 C 35.63618104 43.99927081 33.66743013 44.60929393 31.69873047 45.21948242 C 28.85397155 46.10117025 26.00903332 46.98227746 23.1640625 47.86328125 C 22.29697662 48.13215652 21.42989075 48.4010318 20.53652954 48.67805481 C 18.86241611 49.19624711 17.18775726 49.7126812 15.51251221 50.22720337 C 13.75639379 50.76734896 12.00191806 51.31285132 10.24871826 51.86239624 C 9.35888245 52.13750031 8.46904663 52.41260437 7.55224609 52.69604492 C 6.3498378 53.07124519 6.3498378 53.07124519 5.12313843 53.45402527 C 3 54 3 54 0 54 C 0 47.4 0 40.8 0 34 C 3.8940896 32.99275281 7.79001785 31.99395869 11.6875 31 C 12.79029297 30.71382813 13.89308594 30.42765625 15.02929688 30.1328125 C 16.09599609 29.86210937 17.16269531 29.59140625 18.26171875 29.3125 C 19.24100342 29.06113281 20.22028809 28.80976563 21.22924805 28.55078125 C 23.9029135 28.01929925 26.28313734 27.89592226 29 28 C 29 27.34 29 26.68 29 26 C 27.06447266 25.814375 27.06447266 25.814375 25.08984375 25.625 C 20.1602021 25.07651098 15.39251689 24.1099789 10.5625 23 C 9.76134766 22.82210938 8.96019531 22.64421875 8.13476562 22.4609375 C 2.2765457 21.13827285 2.2765457 21.13827285 0 20 C 0 13.4 0 6.8 0 0 Z" stroke-linecap="round" />
</g>
		<g transform="matrix(1 0 0 1 53.09 -51.43)"  >
<path style="stroke: none; stroke-width: 1; stroke-dasharray: none; stroke-linecap: butt; stroke-dashoffset: 0; stroke-linejoin: miter; stroke-miterlimit: 4; fill: rgb(0,0,0); fill-rule: nonzero; opacity: 1;" vector-effect="non-scaling-stroke"  transform=" translate(-11.54, -12.5)" d="M 0 0 C 7.92 0 15.84 0 24 0 C 24 7.92 24 15.84 24 24 C 16.08 24.33 8.16 24.66 0 25 C -1.11170784 19.44146079 -1.11170784 19.44146079 -0.5625 15.875 C 0.2101442 9.99664105 0.2101442 9.99664105 0 0 Z" stroke-linecap="round" />
</g>
		<g transform="matrix(1 0 0 1 -24.45 63.57)"  >
<path style="stroke: none; stroke-width: 1; stroke-dasharray: none; stroke-linecap: butt; stroke-dashoffset: 0; stroke-linejoin: miter; stroke-miterlimit: 4; fill: rgb(0,0,0); fill-rule: nonzero; opacity: 1;" vector-effect="non-scaling-stroke"  transform=" translate(-65, -25.5)" d="M 0 0 C 0.99 0.495 0.99 0.495 2 1 C 1.67 8.92 1.34 16.84 1 25 C 6.6615625 24.7834375 6.6615625 24.7834375 12.4375 24.5625 C 13.62915771 24.51939697 14.82081543 24.47629395 16.04858398 24.43188477 C 16.98001221 24.39377686 17.91144043 24.35566895 18.87109375 24.31640625 C 20.30859985 24.26141968 20.30859985 24.26141968 21.77514648 24.20532227 C 23.97138925 24.24165576 23.97138925 24.24165576 25 23 C 25.15620555 21.58672053 25.25056173 20.1664541 25.31640625 18.74609375 C 25.35830078 17.89208984 25.40019531 17.03808594 25.44335938 16.15820312 C 25.48267578 15.26037109 25.52199219 14.36253906 25.5625 13.4375 C 25.60568359 12.53580078 25.64886719 11.63410156 25.69335938 10.70507812 C 25.79978142 8.47021515 25.90179988 6.23523692 26 4 C 26.33 4 26.66 4 27 4 C 27 10.93 27 17.86 27 25 C 58.35 25 89.7 25 122 25 C 122 25.33 122 25.66 122 26 C 110.14907698 26.83165509 98.37389408 27.13685618 86.49609375 27.09765625 C 84.79403221 27.09578446 83.09197012 27.09436417 81.38990784 27.09336853 C 76.97273189 27.08960311 72.55559035 27.07982611 68.13842773 27.06866455 C 63.60596176 27.05831973 59.07349007 27.0538433 54.54101562 27.04882812 C 45.69399309 27.03819662 36.84700483 27.02065053 28 27 C 27.67 34.59 27.34 42.18 27 50 C 60.99 50 94.98 50 130 50 C 130 50.33 130 50.66 130 51 C 95.68 51 61.36 51 26 51 C 26 42.75 26 34.5 26 26 C 17.42 26 8.84 26 0 26 C 0 17.42 0 8.84 0 0 Z" stroke-linecap="round" />
</g>
		<g transform="matrix(1 0 0 1 -23.45 14.07)"  >
<path style="stroke: none; stroke-width: 1; stroke-dasharray: none; stroke-linecap: butt; stroke-dashoffset: 0; stroke-linejoin: miter; stroke-miterlimit: 4; fill: rgb(0,0,0); fill-rule: nonzero; opacity: 1;" vector-effect="non-scaling-stroke"  transform=" translate(-38, -2)" d="M 0 0 C 24.75 0 49.5 0 75 0 C 75.495 1.98 75.495 1.98 76 4 C 75.34 4 74.68 4 74 4 C 74 3.34 74 2.68 74 2 C 49.58 2 25.16 2 0 2 C 0 1.34 0 0.68 0 0 Z" stroke-linecap="round" />
</g>
		<g transform="matrix(1 0 0 1 -134.45 -11.93)"  >
<path style="stroke: none; stroke-width: 1; stroke-dasharray: none; stroke-linecap: butt; stroke-dashoffset: 0; stroke-linejoin: miter; stroke-miterlimit: 4; fill: rgb(0,0,0); fill-rule: nonzero; opacity: 1;" vector-effect="non-scaling-stroke"  transform=" translate(16, -16)" d="M 0 0 C 0 8.58 0 17.16 0 26 C -8.58 27.98 -17.16 29.96 -26 32 C -26 31.34 -26 30.68 -26 30 C -18.46480541 27.36268189 -12.00322127 25.71417067 -4 26 C -4 25.34 -4 24.68 -4 24 C -3.34 24 -2.68 24 -2 24 C -2.03552979 23.43490723 -2.07105957 22.86981445 -2.10766602 22.28759766 C -2.26501802 19.73371428 -2.41386008 17.1794046 -2.5625 14.625 C -2.61857422 13.73554688 -2.67464844 12.84609375 -2.73242188 11.9296875 C -2.78076172 11.07890625 -2.82910156 10.228125 -2.87890625 9.3515625 C -2.9260376 8.56604004 -2.97316895 7.78051758 -3.02172852 6.97119141 C -3 5 -3 5 -2 3 C -4.55716205 3.43837064 -6.84961259 3.93733858 -9.25 4.9375 C -14.38934626 6.92315651 -19.49360505 8 -25 8 C -25 8.66 -25 9.32 -25 10 C -27.31 10 -29.62 10 -32 10 C -28.97898163 7.98598775 -26.57608114 7.11732939 -23.125 6.0546875 C -21.97515625 5.70019531 -20.8253125 5.34570312 -19.640625 4.98046875 C -18.43921875 4.61566406 -17.2378125 4.25085938 -16 3.875 C -14.19789063 3.31619141 -14.19789063 3.31619141 -12.359375 2.74609375 C -3.38679029 0 -3.38679029 0 0 0 Z" stroke-linecap="round" />
</g>
		<g transform="matrix(1 0 0 1 -75.89 51.12)"  >
<path style="stroke: none; stroke-width: 1; stroke-dasharray: none; stroke-linecap: butt; stroke-dashoffset: 0; stroke-linejoin: miter; stroke-miterlimit: 4; fill: rgb(0,0,0); fill-rule: nonzero; opacity: 1;" vector-effect="non-scaling-stroke"  transform=" translate(-13.56, -13.05)" d="M 0 0 C 0.99 0.495 0.99 0.495 2 1 C 1.67 8.92 1.34 16.84 1 25 C 6.6615625 24.7834375 6.6615625 24.7834375 12.4375 24.5625 C 13.62915771 24.51939697 14.82081543 24.47629395 16.04858398 24.43188477 C 16.98001221 24.39377686 17.91144043 24.35566895 18.87109375 24.31640625 C 20.30859985 24.26141968 20.30859985 24.26141968 21.77514648 24.20532227 C 23.97138925 24.24165576 23.97138925 24.24165576 25 23 C 25.15620555 21.58672053 25.25056173 20.1664541 25.31640625 18.74609375 C 25.35830078 17.89208984 25.40019531 17.03808594 25.44335938 16.15820312 C 25.48267578 15.26037109 25.52199219 14.36253906 25.5625 13.4375 C 25.60568359 12.53580078 25.64886719 11.63410156 25.69335938 10.70507812 C 25.79978142 8.47021515 25.90179988 6.23523692 26 4 C 26.33 4 26.66 4 27 4 C 27.02887814 7.47914941 27.04675687 10.95826831 27.0625 14.4375 C 27.07087891 15.43072266 27.07925781 16.42394531 27.08789062 17.44726562 C 27.09272461 18.86362305 27.09272461 18.86362305 27.09765625 20.30859375 C 27.10551147 21.62041626 27.10551147 21.62041626 27.11352539 22.95874023 C 27 25 27 25 26 26 C 24.07332493 26.08748207 22.14348139 26.10697334 20.21484375 26.09765625 C 19.16159912 26.09515869 18.10835449 26.09266113 17.02319336 26.09008789 C 15.67491455 26.08098389 14.32663574 26.07187988 12.9375 26.0625 C 8.668125 26.041875 4.39875 26.02125 0 26 C 0 17.42 0 8.84 0 0 Z" stroke-linecap="round" />
</g>
		<g transform="matrix(1 0 0 1 -123.45 28.07)"  >
<path style="stroke: none; stroke-width: 1; stroke-dasharray: none; stroke-linecap: butt; stroke-dashoffset: 0; stroke-linejoin: miter; stroke-miterlimit: 4; fill: rgb(0,0,0); fill-rule: nonzero; opacity: 1;" vector-effect="non-scaling-stroke"  transform=" translate(-2, -13)" d="M 0 0 C 2.31 0.33 4.62 0.66 7 1 C 7 9.25 7 17.5 7 26 C -1 25 -1 25 -3 23 C 0.465 22.505 0.465 22.505 4 22 C 4.33 15.73 4.66 9.46 5 3 C 3.68 3 2.36 3 1 3 C 0.67 2.01 0.34 1.02 0 0 Z" stroke-linecap="round" />
</g>
		<g transform="matrix(1 0 0 1 -180.95 9.07)"  >
<path style="stroke: none; stroke-width: 1; stroke-dasharray: none; stroke-linecap: butt; stroke-dashoffset: 0; stroke-linejoin: miter; stroke-miterlimit: 4; fill: rgb(0,0,0); fill-rule: nonzero; opacity: 1;" vector-effect="non-scaling-stroke"  transform=" translate(-8.5, -16)" d="M 0 0 C 0.66 0 1.32 0 2 0 C 2 8.58 2 17.16 2 26 C 7.09792156 27.69930719 9.84374012 28.2062504 15 28 C 15 28.99 15 29.98 15 31 C 15.66 31.33 16.32 31.66 17 32 C 15.47734784 31.73958665 13.95694316 31.46602684 12.4375 31.1875 C 11.59058594 31.03667969 10.74367188 30.88585937 9.87109375 30.73046875 C 7 30 7 30 0 27 C 0 18.09 0 9.18 0 0 Z" stroke-linecap="round" />
</g>
		<g transform="matrix(1 0 0 1 93.55 -2.43)"  >
<path style="stroke: none; stroke-width: 1; stroke-dasharray: none; stroke-linecap: butt; stroke-dashoffset: 0; stroke-linejoin: miter; stroke-miterlimit: 4; fill: rgb(0,0,0); fill-rule: nonzero; opacity: 1;" vector-effect="non-scaling-stroke"  transform=" translate(4, -12.5)" d="M 0 0 C 1 4 1 4 1 7 C 0.34 7 -0.32 7 -1 7 C -1.144375 8.010625 -1.28875 9.02125 -1.4375 10.0625 C -1.95833333 13.70833333 -2.47916667 17.35416667 -3 21 C -4.32 21.33 -5.64 21.66 -7 22 C -7 22.99 -7 23.98 -7 25 C -7.66 24.67 -8.32 24.34 -9 24 C -6.03 16.08 -3.06 8.16 0 0 Z" stroke-linecap="round" />
</g>
		<g transform="matrix(1 0 0 1 141.05 20.57)"  >
<path style="stroke: none; stroke-width: 1; stroke-dasharray: none; stroke-linecap: butt; stroke-dashoffset: 0; stroke-linejoin: miter; stroke-miterlimit: 4; fill: rgb(0,0,0); fill-rule: nonzero; opacity: 1;" vector-effect="non-scaling-stroke"  transform=" translate(0.5, -10.5)" d="M 0 0 C 0 0.66 0 1.32 0 2 C -1.98 2 -3.96 2 -6 2 C -5.67 7.28 -5.34 12.56 -5 18 C -3.68 17.67 -2.36 17.34 -1 17 C 1.33300933 16.96111651 3.66709801 16.9551365 6 17 C 2 19 2 19 -7 21 C -7 14.4 -7 7.8 -7 1 C -4 0 -4 0 0 0 Z" stroke-linecap="round" />
</g>
		<g transform="matrix(1 0 0 1 104.31 26.07)"  >
<path style="stroke: none; stroke-width: 1; stroke-dasharray: none; stroke-linecap: butt; stroke-dashoffset: 0; stroke-linejoin: miter; stroke-miterlimit: 4; fill: rgb(0,0,0); fill-rule: nonzero; opacity: 1;" vector-effect="non-scaling-stroke"  transform=" translate(3.24, -9)" d="M 0 0 C 1.39214652 4.17643955 -0.29335734 6.83437793 -1.9375 10.6875 C -2.22818359 11.38939453 -2.51886719 12.09128906 -2.81835938 12.81445312 C -3.53710313 14.54650775 -4.26745331 16.27373781 -5 18 C -6 15 -6 15 -5.4375 11.9375 C -5.293125 10.968125 -5.14875 9.99875 -5 9 C -5.66 8.34 -6.32 7.68 -7 7 C -6.01 6.34 -5.02 5.68 -4 5 C -3.34 5.33 -2.68 5.66 -2 6 C -2.33 5.01 -2.66 4.02 -3 3 C -2.01 2.67 -1.02 2.34 0 2 C 0 1.34 0 0.68 0 0 Z" stroke-linecap="round" />
</g>
		<g transform="matrix(1 0 0 1 147.05 -18.93)"  >
<path style="stroke: none; stroke-width: 1; stroke-dasharray: none; stroke-linecap: butt; stroke-dashoffset: 0; stroke-linejoin: miter; stroke-miterlimit: 4; fill: rgb(0,0,0); fill-rule: nonzero; opacity: 1;" vector-effect="non-scaling-stroke"  transform=" translate(-9.5, -3)" d="M 0 0 C 6.54849313 1.16204993 12.74538144 2.73383385 19 5 C 19 5.33 19 5.66 19 6 C 17.12327096 5.76114358 15.24671459 5.5208456 13.37109375 5.2734375 C 11.76364574 5.08806458 10.15033147 4.94883137 8.53515625 4.8515625 C 7.34212891 4.77035156 7.34212891 4.77035156 6.125 4.6875 C 5.38507813 4.65011719 4.64515625 4.61273438 3.8828125 4.57421875 C 2 4 2 4 0.7421875 1.95703125 C 0.49726563 1.31121094 0.25234375 0.66539062 0 0 Z" stroke-linecap="round" />
</g>
		<g transform="matrix(1 0 0 1 97.55 43.07)"  >
<path style="stroke: none; stroke-width: 1; stroke-dasharray: none; stroke-linecap: butt; stroke-dashoffset: 0; stroke-linejoin: miter; stroke-miterlimit: 4; fill: rgb(0,0,0); fill-rule: nonzero; opacity: 1;" vector-effect="non-scaling-stroke"  transform=" translate(3, -7)" d="M 0 0 C 0.33 0.66 0.66 1.32 1 2 C 0.26821134 4.07196631 -0.55899003 6.1108552 -1.4375 8.125 C -1.91058594 9.22070312 -2.38367188 10.31640625 -2.87109375 11.4453125 C -3.24363281 12.28835938 -3.61617188 13.13140625 -4 14 C -4.99 13.67 -5.98 13.34 -7 13 C -7 12.01 -7 11.02 -7 10 C -6.34 10 -5.68 10 -5 10 C -4.67 9.34 -4.34 8.68 -4 8 C -2.66666667 5.33333333 -1.33333333 2.66666667 0 0 Z" stroke-linecap="round" />
</g>
		<g transform="matrix(1 0 0 1 -178.95 -8.85)"  >
<path style="stroke: none; stroke-width: 1; stroke-dasharray: none; stroke-linecap: butt; stroke-dashoffset: 0; stroke-linejoin: miter; stroke-miterlimit: 4; fill: rgb(0,0,0); fill-rule: nonzero; opacity: 1;" vector-effect="non-scaling-stroke"  transform=" translate(8.5, -2.08)" d="M 0 0 C -1.2065625 0.185625 -1.2065625 0.185625 -2.4375 0.375 C -3.283125 0.58125 -4.12875 0.7875 -5 1 C -5.33 1.66 -5.66 2.32 -6 3 C -6.99 2.67 -7.98 2.34 -9 2 C -9 2.99 -9 3.98 -9 5 C -11.64 4.67 -14.28 4.34 -17 4 C -14.04925888 2.43220483 -11.12880766 1.29925425 -7.9375 0.3125 C -7.08027344 0.04050781 -6.22304687 -0.23148437 -5.33984375 -0.51171875 C -3 -1 -3 -1 0 0 Z" stroke-linecap="round" />
</g>
		<g transform="matrix(1 0 0 1 118.55 -9.43)"  >
<path style="stroke: none; stroke-width: 1; stroke-dasharray: none; stroke-linecap: butt; stroke-dashoffset: 0; stroke-linejoin: miter; stroke-miterlimit: 4; fill: rgb(0,0,0); fill-rule: nonzero; opacity: 1;" vector-effect="non-scaling-stroke"  transform=" translate(1, -7.5)" d="M 0 0 C 0.66 0 1.32 0 2 0 C -1.07517084 10.55808656 -1.07517084 10.55808656 -3 15 C -3.68707555 12.50935112 -4 10.62113708 -4 8 C -3.03114628 6.31503702 -2.03013277 4.64821244 -1 3 C -0.67 2.01 -0.34 1.02 0 0 Z" stroke-linecap="round" />
</g>
		<g transform="matrix(1 0 0 1 127.41 -37.43)"  >
<path style="stroke: none; stroke-width: 1; stroke-dasharray: none; stroke-linecap: butt; stroke-dashoffset: 0; stroke-linejoin: miter; stroke-miterlimit: 4; fill: rgb(0,0,0); fill-rule: nonzero; opacity: 1;" vector-effect="non-scaling-stroke"  transform=" translate(2.14, -5.5)" d="M 0 0 C 1.13643966 3.40931897 0.86747764 4.00335456 -0.4375 7.1875 C -0.72496094 7.90292969 -1.01242187 8.61835938 -1.30859375 9.35546875 C -1.53675781 9.89816406 -1.76492188 10.44085938 -2 11 C -2.33 10.34 -2.66 9.68 -3 9 C -3.66 8.67 -4.32 8.34 -5 8 C -4.01 7.67 -3.02 7.34 -2 7 C -2.33 5.35 -2.66 3.7 -3 2 C -2.01 1.34 -1.02 0.68 0 0 Z" stroke-linecap="round" />
</g>
		<g transform="matrix(1 0 0 1 124.05 -23.93)"  >
<path style="stroke: none; stroke-width: 1; stroke-dasharray: none; stroke-linecap: butt; stroke-dashoffset: 0; stroke-linejoin: miter; stroke-miterlimit: 4; fill: rgb(0,0,0); fill-rule: nonzero; opacity: 1;" vector-effect="non-scaling-stroke"  transform=" translate(-0.5, -6)" d="M 0 0 C 0.99 0.33 1.98 0.66 3 1 C 1.68 4.63 0.36 8.26 -1 12 C -1.33 12 -1.66 12 -2 12 C -1.85962479 10.18706911 -1.71255111 8.3746557 -1.5625 6.5625 C -1.48128906 5.55316406 -1.40007812 4.54382813 -1.31640625 3.50390625 C -1 1 -1 1 0 0 Z" stroke-linecap="round" />
</g>
		<g transform="matrix(1 0 0 1 -166.45 26.07)"  >
<path style="stroke: none; stroke-width: 1; stroke-dasharray: none; stroke-linecap: butt; stroke-dashoffset: 0; stroke-linejoin: miter; stroke-miterlimit: 4; fill: rgb(0,0,0); fill-rule: nonzero; opacity: 1;" vector-effect="non-scaling-stroke"  transform=" translate(-4, -3)" d="M 0 0 C 0.66 0 1.32 0 2 0 C 2 0.66 2 1.32 2 2 C 3.134375 2.28875 4.26875 2.5775 5.4375 2.875 C 6.613125 3.24625 7.78875 3.6175 9 4 C 9.33 4.66 9.66 5.32 10 6 C 4.06 4.515 4.06 4.515 -2 3 C -1.34 2.67 -0.68 2.34 0 2 C 0 1.34 0 0.68 0 0 Z" stroke-linecap="round" />
</g>
		<g transform="matrix(1 0 0 1 160.05 5.49)"  >
<path style="stroke: none; stroke-width: 1; stroke-dasharray: none; stroke-linecap: butt; stroke-dashoffset: 0; stroke-linejoin: miter; stroke-miterlimit: 4; fill: rgb(0,0,0); fill-rule: nonzero; opacity: 1;" vector-effect="non-scaling-stroke"  transform=" translate(3.5, -2.42)" d="M 0 0 C 0.66 0.33 1.32 0.66 2 1 C 2 1.99 2 2.98 2 4 C -4.5 5.25 -4.5 5.25 -9 3 C -4.545 2.505 -4.545 2.505 0 2 C 0 1.34 0 0.68 0 0 Z" stroke-linecap="round" />
</g>
		<g transform="matrix(1 0 0 1 152.55 24.57)"  >
<path style="stroke: none; stroke-width: 1; stroke-dasharray: none; stroke-linecap: butt; stroke-dashoffset: 0; stroke-linejoin: miter; stroke-miterlimit: 4; fill: rgb(0,0,0); fill-rule: nonzero; opacity: 1;" vector-effect="non-scaling-stroke"  transform=" translate(-1, -2.5)" d="M 0 0 C 3.1875 0.875 3.1875 0.875 6 2 C 2.73454239 3.88391785 -0.28111761 4.49287967 -4 5 C -3 2 -3 2 0 0 Z" stroke-linecap="round" />
</g>
		<g transform="matrix(1 0 0 1 148.05 9.3)"  >
<path style="stroke: none; stroke-width: 1; stroke-dasharray: none; stroke-linecap: butt; stroke-dashoffset: 0; stroke-linejoin: miter; stroke-miterlimit: 4; fill: rgb(0,0,0); fill-rule: nonzero; opacity: 1;" vector-effect="non-scaling-stroke"  transform=" translate(6.5, -0.23)" d="M 0 0 C -0.66 0.66 -1.32 1.32 -2 2 C -3.67654729 1.72057545 -5.34259285 1.37668344 -7 1 C -8.9996441 0.96227087 -11.00054061 0.95350094 -13 1 C -7.91719213 -1.72293279 -5.38397391 -2.54243212 0 0 Z" stroke-linecap="round" />
</g>
</g>
</g>
</svg>